<?xml version="1.0" encoding="UTF-8" standalone="no"?>
<svg width="32px" height="32px" viewBox="0 0 32 32" version="1.1" xmlns="http://www.w3.org/2000/svg" xmlns:xlink="http://www.w3.org/1999/xlink">
    <!-- Generator: Sketch 39.1 (31720) - http://www.bohemiancoding.com/sketch -->
    <title>_ICN_Screen-Contract</title>
    <desc>Created with Sketch.</desc>
    <defs></defs>
    <g id="_Icons" stroke="none" stroke-width="1" fill="none" fill-rule="evenodd">
        <g id="_ICN_Screen-Contract" stroke="#FFFFFF">
            <g id="Group-6" transform="translate(8.000000, 8.000000)">
                <g id="Group">
                    <polyline id="Stroke-1-Copy" transform="translate(3.555556, 3.522265) scale(-1, 1) translate(-3.555556, -3.522265) " points="1.77777778 1.84906258 1.77777778 5.19546781 5.33333333 5.19546781"></polyline>
                    <path d="M0.740201049,4.40719238 L4.74931166,0.633912006" id="Line-Copy-8" stroke-linecap="square" transform="translate(2.666667, 2.685664) scale(1, -1) translate(-2.666667, -2.685664) "></path>
                </g>
                <g id="Group-4" transform="translate(9.777778, 0.000000)">
                    <g id="Group-2">
                        <polyline id="Stroke-1-Copy" points="0.116102431 1.84906258 0.116102431 5.19546781 3.67165799 5.19546781"></polyline>
                        <path d="M0.85630348,4.40719238 L4.86541409,0.633912006" id="Line-Copy-8" stroke-linecap="square" transform="translate(2.782769, 2.685664) scale(-1, -1) translate(-2.782769, -2.685664) "></path>
                    </g>
                </g>
                <g id="Group-5" transform="translate(0.000000, 9.307190)">
                    <g id="Group-Copy" transform="translate(2.666667, 3.057802) scale(1, -1) translate(-2.666667, -3.057802) translate(0.000000, 0.129698)">
                        <polyline id="Stroke-1-Copy" transform="translate(3.555556, 3.522265) scale(-1, 1) translate(-3.555556, -3.522265) " points="1.77777778 1.84906258 1.77777778 5.19546781 5.33333333 5.19546781"></polyline>
                        <path d="M0.740201049,4.40719238 L4.74931166,0.633912006" id="Line-Copy-8" stroke-linecap="square" transform="translate(2.666667, 2.685664) scale(1, -1) translate(-2.666667, -2.685664) "></path>
                    </g>
                </g>
                <g id="Group-3" transform="translate(9.777778, 9.307190)">
                    <g id="Group-Copy-2" transform="translate(2.782769, 3.057802) scale(-1, -1) translate(-2.782769, -3.057802) translate(0.116102, 0.129698)">
                        <polyline id="Stroke-1-Copy" transform="translate(3.555556, 3.522265) scale(-1, 1) translate(-3.555556, -3.522265) " points="1.77777778 1.84906258 1.77777778 5.19546781 5.33333333 5.19546781"></polyline>
                        <path d="M0.740201049,4.40719238 L4.74931166,0.633912006" id="Line-Copy-8" stroke-linecap="square" transform="translate(2.666667, 2.685664) scale(1, -1) translate(-2.666667, -2.685664) "></path>
                    </g>
                </g>
            </g>
        </g>
    </g>
</svg>