<?xml version="1.0" encoding="UTF-8" standalone="no"?>
<svg width="64px" height="64px" viewBox="0 0 64 64" version="1.1" xmlns="http://www.w3.org/2000/svg" xmlns:xlink="http://www.w3.org/1999/xlink">
    <!-- Generator: Sketch 39.1 (31720) - http://www.bohemiancoding.com/sketch -->
    <title>_ICN_BTN_Islands Copy 2</title>
    <desc>Created with Sketch.</desc>
    <defs></defs>
    <g id="_Icons" stroke="none" stroke-width="1" fill="none" fill-rule="evenodd">
        <g id="_ICN_BTN_Islands-Copy-2">
            <path d="M8.36923077,32 C8.36923077,18.9709391 18.9694267,8.36923077 32,8.36923077 C45.0305733,8.36923077 55.6307692,18.9709391 55.6307692,32 C55.6307692,45.0290609 45.0305733,55.6307692 32,55.6307692 C18.9694267,55.6307692 8.36923077,45.0290609 8.36923077,32 Z" id="Fill-10-Copy-10" stroke-opacity="0.474184783" stroke="#354652" fill="#FFFFFF"></path>
            <path d="M22.6335219,29.2519803 C24.0052979,29.8193883 25.2049077,30.7172445 26.1351607,31.8465068 C27.7799961,29.8490083 30.2717783,28.5734973 33.0625372,28.5734973 C36.2948193,28.5734973 39.128157,30.284052 40.707273,32.8489585 C39.128157,35.413865 36.2948193,37.1244198 33.0625372,37.1244198 C30.2717783,37.1244198 27.7799961,35.8498343 26.1351607,33.8514102 C25.2049077,34.9806726 24.0052979,35.8785287 22.6335219,36.4459367" id="Stroke-51" stroke="#354651" stroke-width="0.5" stroke-linecap="round" stroke-linejoin="round"></path>
            <path d="M22.6365764,36.4459367 C22.6365764,36.4459367 23.2511913,34.123544 23.2511913,32.8489585 C23.2511913,31.5743731 22.6365764,29.2519803 22.6365764,29.2519803" id="Stroke-52" stroke="#354651" stroke-width="0.5" stroke-linecap="round" stroke-linejoin="round"></path>
            <path d="M36.3632229,32.8489585 C36.3632229,33.2034728 36.6510923,33.4913422 37.0056066,33.4913422 C37.3610465,33.4913422 37.6479903,33.2034728 37.6479903,32.8489585 C37.6479903,32.4944442 37.3610465,32.2065749 37.0056066,32.2065749 C36.6510923,32.2065749 36.3632229,32.4944442 36.3632229,32.8489585 L36.3632229,32.8489585 Z" id="Stroke-53" stroke="#354651" stroke-width="0.5" stroke-linecap="round" stroke-linejoin="round"></path>
        </g>
    </g>
</svg>