<?xml version="1.0" encoding="UTF-8" standalone="no"?>
<svg width="200px" height="32px" viewBox="0 0 200 32" version="1.1" xmlns="http://www.w3.org/2000/svg" xmlns:xlink="http://www.w3.org/1999/xlink">
    <!-- Generator: Sketch 39.1 (31720) - http://www.bohemiancoding.com/sketch -->
    <title>_ICN_LABEL_Cold-Water-Coral-Reef</title>
    <desc>Created with Sketch.</desc>
    <defs></defs>
    <g id="_Icons" stroke="none" stroke-width="1" fill="none" fill-rule="evenodd">
        <g id="_ICN_LABEL_Cold-Water-Coral-Reef">
            <polygon id="Fill-55" fill="#FEFEFE" points="0 32 159.5 32 159.5 0 0 0"></polygon>
            <text id="Cold-Water-Coral-Ree" font-family="DINPro-Regular, DINPro" font-size="12.2894" font-weight="normal" letter-spacing="-0.491576" fill="#061819">
                <tspan x="16.7792969" y="21">Cold Water Coral Reefs</tspan>
            </text>
            <path d="M143.746154,16 C143.746154,7.17824 150.92337,5.68434189e-14 159.746154,5.68434189e-14 C168.568938,5.68434189e-14 175.746154,7.17824 175.746154,16 C175.746154,24.82176 168.568938,32 159.746154,32 C150.92337,32 143.746154,24.82176 143.746154,16 Z" id="Fill-10-Copy-9" stroke="#FFFFFF" stroke-width="0.5" fill="#354651"></path>
            <g id="Group-3" transform="translate(155.954487, 9.000000)" stroke-width="0.5" stroke="#FFFFFF">
                <g id="Group-2">
                    <g id="Group">
                        <path d="M3.88885,13.5654862 L3.88885,3.56540288 C3.88885,3.21598622 3.99618333,2.73473622 4.29076667,2.25173622 C4.58593333,1.76931955 5.09518333,0.830736215 5.06835,0.0269028818" id="Stroke-37"></path>
                        <path d="M0.430441667,6.82524455 C0.430441667,6.82524455 0.618275,8.11791122 1.66360833,8.91124455 C2.709525,9.70516122 3.889025,10.4699112 3.889025,11.6558279" id="Stroke-38"></path>
                        <path d="M2.22664167,6.46101122 C2.22664167,6.46101122 2.36080833,6.82151122 2.30714167,7.20417788 C2.253475,7.58684455 2.15255833,8.73426122 2.00205833,9.16592788" id="Stroke-39"></path>
                        <path d="M3.88885,13.2437779 C3.88885,13.2437779 3.96935,12.6003612 4.53226667,12.1716112 C5.09518333,11.7422779 6.0606,10.9646945 6.59668333,10.3749445 C7.13276667,9.78519455 7.34743333,9.15111122 7.4011,8.78477788" id="Stroke-40"></path>
                        <path d="M5.64485833,8.13418622 C5.64485833,8.13418622 5.738775,8.78810288 5.92660833,9.16610288 C6.11385833,9.54410288 6.395025,10.6203529 5.94060833,11.0141029" id="Stroke-41"></path>
                        <path d="M3.88885,8.89473622 C3.88885,8.89473622 3.91685,7.56006955 4.47918333,7.07765288 C5.04151667,6.59523622 5.72226667,6.03231955 6.18601667,5.57615288 C6.65035,5.12056955 6.89126667,4.66498622 6.89126667,3.91423622" id="Stroke-42"></path>
                        <path d="M3.62075,0.292261215 C3.62075,0.292261215 3.54025,1.23317788 4.3715,2.06442788" id="Stroke-43"></path>
                        <path d="M2.22664167,1.39242788 C2.22664167,1.39242788 2.333975,1.65142788 2.28030833,2.09942788 C2.22664167,2.54684455 1.824725,3.61434455 2.11930833,3.89842788" id="Stroke-44"></path>
                        <path d="M0.859366667,1.76937788 C0.859366667,1.76937788 1.10086667,3.34379455 2.60178333,4.27246122 C3.13845,4.63821122 3.88861667,5.09729455 3.88861667,6.08779455" id="Stroke-45"></path>
                    </g>
                </g>
            </g>
        </g>
    </g>
</svg>