<?xml version="1.0" encoding="UTF-8" standalone="no"?>
<svg width="64px" height="64px" viewBox="0 0 64 64" version="1.1" xmlns="http://www.w3.org/2000/svg" xmlns:xlink="http://www.w3.org/1999/xlink">
    <!-- Generator: Sketch 39.1 (31720) - http://www.bohemiancoding.com/sketch -->
    <title>_ICN_BTN_Islands_Inverted Copy 3</title>
    <desc>Created with Sketch.</desc>
    <defs></defs>
    <g id="_Icons" stroke="none" stroke-width="1" fill="none" fill-rule="evenodd">
        <g id="_ICN_BTN_Islands_Inverted-Copy-3">
            <path d="M8.36923077,32 C8.36923077,19.2209791 18.9694267,8.82272769 32,8.82272769 C45.0305733,8.82272769 55.6307692,19.2209791 55.6307692,32 C55.6307692,44.7790209 45.0305733,55.1772723 32,55.1772723 C18.9694267,55.1772723 8.36923077,44.7790209 8.36923077,32 Z" id="Fill-10-Copy-9" stroke="#FFFFFF" stroke-width="0.5" fill="#354651"></path>
            <g id="Group" transform="translate(20.000000, 23.000000)">
                <path d="M17.4981315,3.47095072 C17.4981315,3.56845072 17.4191315,3.64795072 17.3211315,3.64795072 C17.2236315,3.64795072 17.1441315,3.56845072 17.1441315,3.47095072 C17.1441315,3.37295072 17.2236315,3.29395072 17.3211315,3.29395072 C17.4191315,3.29395072 17.4981315,3.37295072 17.4981315,3.47095072 L17.4981315,3.47095072 Z" id="Stroke-11" fill="#FFFFFF"></path>
                <path d="M13.5734191,10.0959302 C12.8569398,10.5797154 11.9937835,10.8626278 11.0640012,10.8626278 C10.5687802,10.8626278 10.0924532,10.782577 9.64745039,10.6344085" id="Stroke-1" stroke="#FFFFFF" stroke-width="0.5"></path>
                <path d="M0.0495605469,16.3769538 L15.0139852,1.13088912 C15.1760756,0.970787555 15.3550711,0.827591126 15.5474913,0.704283091 C16.0601146,0.375130189 16.6672078,0.184698827 17.3200443,0.184698827 C18.478046,0.184698827 19.9055354,1.68776412 19.9055354,1.68776412" id="Stroke-3" stroke="#FFFFFF" stroke-width="0.5"></path>
                <path d="M0.143798828,16.1682132 L8.12464587,13.694536 C8.86698013,13.9411521 9.66052701,14.0744044 10.4858953,14.0744044 C14.6172117,14.0744044 17.9659199,10.7256962 17.9659199,6.5943798 C18.6197508,6.25727154 19.9040438,5.25191328 19.9040438,5.25191328 L22.0723758,3.46891886 L19.9055354,1.68791328" id="Stroke-7" stroke="#FFFFFF" stroke-width="0.5"></path>
                <path d="M15.5522148,6.37421529 C15.5522148,7.92352109 14.7671205,9.28935647 13.5733197,10.0958308" id="Stroke-9" stroke="#FFFFFF" stroke-width="0.5"></path>
                <path d="M12.3233197,13.8548365 L12.3233197,17.2219414" id="Stroke-13" stroke="#FFFFFF" stroke-width="0.5"></path>
            </g>
        </g>
    </g>
</svg>