<?xml version="1.0" encoding="UTF-8" standalone="no"?>
<svg width="200px" height="32px" viewBox="0 0 200 32" version="1.1" xmlns="http://www.w3.org/2000/svg" xmlns:xlink="http://www.w3.org/1999/xlink">
    <!-- Generator: Sketch 39.1 (31720) - http://www.bohemiancoding.com/sketch -->
    <title>_ICN_LABEL_Bird-Colonys</title>
    <desc>Created with Sketch.</desc>
    <defs></defs>
    <g id="_Icons" stroke="none" stroke-width="1" fill="none" fill-rule="evenodd">
        <g id="_ICN_LABEL_Bird-Colonys">
            <polygon id="Fill-55" fill="#FEFEFE" points="0 32 159.5 32 159.5 0 0 0"></polygon>
            <text id="Bird-Colonys" font-family="DINPro-Regular, DINPro" font-size="12.2894" font-weight="normal" letter-spacing="-0.491576" fill="#061819">
                <tspan x="16.7792969" y="21">Bird Colonys</tspan>
            </text>
            <path d="M143.746154,16 C143.746154,7.17824 150.92337,5.68434189e-14 159.746154,5.68434189e-14 C168.568938,5.68434189e-14 175.746154,7.17824 175.746154,16 C175.746154,24.82176 168.568938,32 159.746154,32 C150.92337,32 143.746154,24.82176 143.746154,16 Z" id="Fill-10-Copy-9" stroke="#FFFFFF" stroke-width="0.5" fill="#354651"></path>
            <g id="Group-2" transform="translate(151.000000, 9.000000)" stroke="#FFFFFF" stroke-width="0.5">
                <g id="Group" transform="translate(0.157227, 0.470873)">
                    <path d="M12.6941693,2.51803091 C12.6941693,2.58876312 12.636858,2.64643708 12.5657631,2.64643708 C12.4950309,2.64643708 12.4373569,2.58876312 12.4373569,2.51803091 C12.4373569,2.44693597 12.4950309,2.38962475 12.5657631,2.38962475 C12.636858,2.38962475 12.6941693,2.44693597 12.6941693,2.51803091 L12.6941693,2.51803091 Z" id="Stroke-11"></path>
                    <path d="M9.8469531,7.32417901 C9.32717702,7.6751451 8.70099293,7.88038631 8.02647436,7.88038631 C7.66721206,7.88038631 7.32165655,7.82231279 6.99882547,7.71482266" id="Stroke-1"></path>
                    <path d="M0.035954123,11.8808014 L10.892024,0.82041319 C11.0096139,0.704266141 11.1394678,0.600383067 11.2790606,0.510928197 C11.6509476,0.272141406 12.0913686,0.133991345 12.5649744,0.133991345 C13.4050566,0.133991345 14.440641,1.22440293 14.440641,1.22440293" id="Stroke-3"></path>
                    <path d="M0.104320091,11.7293687 L5.89409389,9.9348184 C6.43262664,10.1137281 7.00831201,10.2103971 7.60708251,10.2103971 C10.6041814,10.2103971 13.0335304,7.78104812 13.0335304,4.78394927 C13.5078576,4.5393912 14.4395589,3.81004544 14.4395589,3.81004544 L16.0125939,2.51655688 L14.440641,1.22451114" id="Stroke-7"></path>
                    <path d="M11.2824873,4.62422904 C11.2824873,5.7481862 10.712934,6.73904317 9.84688096,7.32410687" id="Stroke-9"></path>
                    <path d="M8.94005776,10.0511097 L8.94005776,12.4938048" id="Stroke-13"></path>
                </g>
            </g>
        </g>
    </g>
</svg>