<?xml version="1.0" encoding="UTF-8" standalone="no"?>
<svg width="64px" height="64px" viewBox="0 0 64 64" version="1.1" xmlns="http://www.w3.org/2000/svg" xmlns:xlink="http://www.w3.org/1999/xlink">
    <!-- Generator: Sketch 39.1 (31720) - http://www.bohemiancoding.com/sketch -->
    <title>_ICN_BTN_Islands_Inverted Copy 2</title>
    <desc>Created with Sketch.</desc>
    <defs></defs>
    <g id="_Icons" stroke="none" stroke-width="1" fill="none" fill-rule="evenodd">
        <g id="_ICN_BTN_Islands_Inverted-Copy-2" stroke="#FFFFFF" stroke-width="0.5">
            <path d="M8.36923077,32 C8.36923077,19.2209791 18.9694267,8.82272769 32,8.82272769 C45.0305733,8.82272769 55.6307692,19.2209791 55.6307692,32 C55.6307692,44.7790209 45.0305733,55.1772723 32,55.1772723 C18.9694267,55.1772723 8.36923077,44.7790209 8.36923077,32 Z" id="Fill-10-Copy-9" fill="#354651"></path>
            <g id="Group" transform="translate(31.922719, 32.848959) rotate(20.000000) translate(-31.922719, -32.848959) translate(21.422719, 25.348959)" stroke-linecap="round" stroke-linejoin="round">
                <path d="M1.31833011,4.24294155 C2.69010616,4.8103496 3.88971599,5.70820572 4.81996898,6.83746805 C6.46480437,4.83996959 8.9565865,3.56445853 11.7473455,3.56445853 C14.9796275,3.56445853 17.8129652,5.27501328 19.3920812,7.83991978 C17.8129652,10.4048263 14.9796275,12.115381 11.7473455,12.115381 C8.9565865,12.115381 6.46480437,10.8407956 4.81996898,8.84237151 C3.88971599,9.97163385 2.69010616,10.86949 1.31833011,11.436898" id="Stroke-51" transform="translate(10.355206, 7.839920) rotate(-20.000000) translate(-10.355206, -7.839920) "></path>
                <path d="M1.83616368,14.3559846 C1.83616368,14.3559846 2.4507786,12.0335918 2.4507786,10.7590064 C2.4507786,9.48442095 1.83616368,7.16202816 1.83616368,7.16202816" id="Stroke-52" transform="translate(2.336164, 10.759006) rotate(-20.000000) translate(-2.336164, -10.759006) "></path>
                <path d="M14.257167,4.72629691 C14.257167,5.08081123 14.5450363,5.36868057 14.8995506,5.36868057 C15.2549906,5.36868057 15.5419343,5.08081123 15.5419343,4.72629691 C15.5419343,4.37178258 15.2549906,4.08391325 14.8995506,4.08391325 C14.5450363,4.08391325 14.257167,4.37178258 14.257167,4.72629691 L14.257167,4.72629691 Z" id="Stroke-53" transform="translate(14.899551, 4.726297) rotate(-20.000000) translate(-14.899551, -4.726297) "></path>
            </g>
        </g>
    </g>
</svg>