<?xml version="1.0" encoding="UTF-8" standalone="no"?>
<svg width="200px" height="32px" viewBox="0 0 200 32" version="1.1" xmlns="http://www.w3.org/2000/svg" xmlns:xlink="http://www.w3.org/1999/xlink">
    <!-- Generator: Sketch 39.1 (31720) - http://www.bohemiancoding.com/sketch -->
    <title>_ICN_LABEL_Cod-Breeding-Grounds</title>
    <desc>Created with Sketch.</desc>
    <defs></defs>
    <g id="_Icons" stroke="none" stroke-width="1" fill="none" fill-rule="evenodd">
        <g id="_ICN_LABEL_Cod-Breeding-Grounds">
            <polygon id="Fill-55" fill="#FEFEFE" points="0 32 159.5 32 159.5 0 0 0"></polygon>
            <text id="Cod-Breeding-Grounds" font-family="DINPro-Regular, DINPro" font-size="12.2894" font-weight="normal" letter-spacing="-0.491576" fill="#061819">
                <tspan x="16.7792969" y="21">Cod Breeding Grounds</tspan>
            </text>
            <g id="Group-2" transform="translate(143.000000, 0.000000)" stroke="#FFFFFF" stroke-width="0.5">
                <path d="M0.746153846,16 C0.746153846,7.17824 7.92336985,5.68434189e-14 16.7461538,5.68434189e-14 C25.5689378,5.68434189e-14 32.7461538,7.17824 32.7461538,16 C32.7461538,24.82176 25.5689378,32 16.7461538,32 C7.92336985,32 0.746153846,24.82176 0.746153846,16 Z" id="Fill-10-Copy-9" fill="#354651"></path>
                <g id="Group" transform="translate(16.448479, 16.565972) rotate(20.000000) translate(-16.448479, -16.565972) translate(9.448479, 11.565972)" stroke-linecap="round" stroke-linejoin="round">
                    <path d="M0.87888674,2.8286277 C1.79340411,3.20689973 2.59314399,3.80547048 3.21331265,4.55831204 C4.30986958,3.2266464 5.97105767,2.37630569 7.83156365,2.37630569 C9.98641834,2.37630569 11.8753101,3.51667552 12.9280542,5.22661319 C11.8753101,6.93655086 9.98641834,8.07692069 7.83156365,8.07692069 C5.97105767,8.07692069 4.30986958,7.22719707 3.21331265,5.89491434 C2.59314399,6.6477559 1.79340411,7.24632665 0.87888674,7.62459868" id="Stroke-51" transform="translate(6.903470, 5.226613) rotate(-20.000000) translate(-6.903470, -5.226613) "></path>
                    <path d="M1.21405789,9.51365305 C1.21405789,9.51365305 1.62380117,7.9653912 1.62380117,7.11566757 C1.62380117,6.26594394 1.21405789,4.71768208 1.21405789,4.71768208" id="Stroke-52" transform="translate(1.714058, 7.115668) rotate(-20.000000) translate(-1.714058, -7.115668) "></path>
                    <path d="M9.52498925,3.12199993 C9.52498925,3.35834281 9.71690214,3.5502557 9.95324502,3.5502557 C10.190205,3.5502557 10.3815008,3.35834281 10.3815008,3.12199993 C10.3815008,2.88565705 10.190205,2.69374416 9.95324502,2.69374416 C9.71690214,2.69374416 9.52498925,2.88565705 9.52498925,3.12199993 L9.52498925,3.12199993 Z" id="Stroke-53" transform="translate(10.024989, 3.193744) rotate(-20.000000) translate(-10.024989, -3.193744) "></path>
                </g>
            </g>
        </g>
    </g>
</svg>