<?xml version="1.0" encoding="UTF-8" standalone="no"?>
<svg width="64px" height="64px" viewBox="0 0 64 64" version="1.1" xmlns="http://www.w3.org/2000/svg" xmlns:xlink="http://www.w3.org/1999/xlink">
    <!-- Generator: Sketch 39.1 (31720) - http://www.bohemiancoding.com/sketch -->
    <title>_ICN_BTN_Islands_Inverted Copy</title>
    <desc>Created with Sketch.</desc>
    <defs></defs>
    <g id="_Icons" stroke="none" stroke-width="1" fill="none" fill-rule="evenodd">
        <g id="_ICN_BTN_Islands_Inverted-Copy" stroke="#FFFFFF" stroke-width="0.5">
            <path d="M8.3481497,32.8489585 C8.3481497,20.0699377 18.9483456,9.6716862 31.9789189,9.6716862 C45.0094922,9.6716862 55.6096882,20.0699377 55.6096882,32.8489585 C55.6096882,45.6279794 45.0094922,56.0262308 31.9789189,56.0262308 C18.9483456,56.0262308 8.3481497,45.6279794 8.3481497,32.8489585 Z" id="Fill-10-Copy-9" fill="#354651"></path>
            <g id="Group" transform="translate(25.000000, 20.848959)">
                <path d="M6.6666,23.2551192 L6.6666,6.11211923 C6.6666,5.51311923 6.8506,4.68811923 7.3556,3.86011923 C7.8616,3.03311923 8.7346,1.42411923 8.6886,0.046119226" id="Stroke-37"></path>
                <path d="M0.7379,11.7004192 C0.7379,11.7004192 1.0599,13.9164192 2.8519,15.2764192 C4.6449,16.6374192 6.6669,17.9484192 6.6669,19.9814192" id="Stroke-38"></path>
                <path d="M3.8171,11.0760192 C3.8171,11.0760192 4.0471,11.6940192 3.9551,12.3500192 C3.8631,13.0060192 3.6901,14.9730192 3.4321,15.7130192" id="Stroke-39"></path>
                <path d="M6.6666,22.7036192 C6.6666,22.7036192 6.8046,21.6006192 7.7696,20.8656192 C8.7346,20.1296192 10.3896,18.7966192 11.3086,17.7856192 C12.2276,16.7746192 12.5956,15.6876192 12.6876,15.0596192" id="Stroke-40"></path>
                <path d="M9.6769,13.9443192 C9.6769,13.9443192 9.8379,15.0653192 10.1599,15.7133192 C10.4809,16.3613192 10.9629,18.2063192 10.1839,18.8813192" id="Stroke-41"></path>
                <path d="M6.6666,15.2481192 C6.6666,15.2481192 6.7146,12.9601192 7.6786,12.1331192 C8.6426,11.3061192 9.8096,10.3411192 10.6046,9.55911923 C11.4006,8.77811923 11.8136,7.99711923 11.8136,6.71011923" id="Stroke-42"></path>
                <path d="M6.207,0.501019226 C6.207,0.501019226 6.069,2.11401923 7.494,3.53901923" id="Stroke-43"></path>
                <path d="M3.8171,2.38701923 C3.8171,2.38701923 4.0011,2.83101923 3.9091,3.59901923 C3.8171,4.36601923 3.1281,6.19601923 3.6331,6.68301923" id="Stroke-44"></path>
                <path d="M1.4732,3.03321923 C1.4732,3.03321923 1.8872,5.73221923 4.4602,7.32421923 C5.3802,7.95121923 6.6662,8.73821923 6.6662,10.4362192" id="Stroke-45"></path>
            </g>
        </g>
    </g>
</svg>