<?xml version="1.0" encoding="UTF-8" standalone="no"?>
<svg width="64px" height="64px" viewBox="0 0 64 64" version="1.1" xmlns="http://www.w3.org/2000/svg" xmlns:xlink="http://www.w3.org/1999/xlink">
    <!-- Generator: Sketch 39.1 (31720) - http://www.bohemiancoding.com/sketch -->
    <title>_ICN_BTN_Islands_Inverted</title>
    <desc>Created with Sketch.</desc>
    <defs></defs>
    <g id="_Icons" stroke="none" stroke-width="1" fill="none" fill-rule="evenodd">
        <g id="_ICN_BTN_Islands_Inverted" stroke="#FFFFFF" stroke-width="0.5">
            <path d="M8.36923077,32 C8.36923077,19.2209791 18.9694267,8.82272769 32,8.82272769 C45.0305733,8.82272769 55.6307692,19.2209791 55.6307692,32 C55.6307692,44.7790209 45.0305733,55.1772723 32,55.1772723 C18.9694267,55.1772723 8.36923077,44.7790209 8.36923077,32 Z" id="Fill-10-Copy-9" fill="#354651"></path>
            <path d="M39.0934144,38.3724178 C37.03782,40.5108524 34.1610475,41.8366819 30.9769954,41.8366819 C26.7174648,41.8366819 23.0089182,39.4630195 21.0910699,35.9506406 C21.0010052,35.7956041 20.9215363,35.6405676 20.8473654,35.4855311 L26.7121668,26.4346065 L29.0379553,22.8473824 L30.9134203,25.7449613 L37.525229,35.9506406 L39.0934144,38.3724178 L39.0934144,38.3724178 Z" id="Stroke-1"></path>
            <path d="M40.8734637,35.9506406 C40.8681658,35.9613328 40.8628679,35.9666789 40.8575699,35.977371 C40.3754589,36.8541292 39.7820914,37.6560422 39.0933614,38.3724178 L33.498754,29.7171037 L34.9080017,29.8347176 L36.968894,27.450363 L40.1476482,31.3262757 L42.240328,31.4171592 C42.102582,33.0530617 41.6204709,34.5873885 40.8734637,35.9506406 Z" id="Stroke-3"></path>
        </g>
    </g>
</svg>