<?xml version="1.0" encoding="UTF-8" standalone="no"?>
<svg width="64px" height="64px" viewBox="0 0 64 64" version="1.1" xmlns="http://www.w3.org/2000/svg" xmlns:xlink="http://www.w3.org/1999/xlink">
    <!-- Generator: Sketch 39.1 (31720) - http://www.bohemiancoding.com/sketch -->
    <title>_ICN_BTN_Oil</title>
    <desc>Created with Sketch.</desc>
    <defs></defs>
    <g id="_Icons" stroke="none" stroke-width="1" fill="none" fill-rule="evenodd">
        <g id="_ICN_BTN_Oil">
            <path d="M8.36923077,32 C8.36923077,18.9709391 18.9694267,8.36923077 32,8.36923077 C45.0305733,8.36923077 55.6307692,18.9709391 55.6307692,32 C55.6307692,45.0290609 45.0305733,55.6307692 32,55.6307692 C18.9694267,55.6307692 8.36923077,45.0290609 8.36923077,32 Z" id="Fill-10-Copy-6" stroke-opacity="0.492697011" stroke="#354652" fill="#FFFFFF"></path>
            <g id="Group" transform="translate(25.000000, 21.500000)" stroke="#344450" stroke-width="0.5">
                <path d="M7.10158215,0.815916013 C7.06089611,0.757429822 6.99223841,0.721829532 6.91976639,0.721829532 C6.84856581,0.721829532 6.7799081,0.757429822 6.73795062,0.815916013 C6.48874859,1.15920453 0.632500836,9.25445625 0.632500836,13.3345038 C0.632500836,20.4062472 5.86955782,20.764793 6.91976639,20.764793 C7.97633214,20.764793 13.2413608,20.4062472 13.2413608,13.3345038 C13.2413608,9.30912812 7.35332706,1.1617474 7.10158215,0.815916013 L7.10158215,0.815916013 Z" id="Stroke-6-Copy"></path>
                <path d="M10.33892,15.6630171 C10.33892,16.7195828 9.48197013,17.5765327 8.42540438,17.5765327" id="Stroke-7-Copy"></path>
            </g>
        </g>
    </g>
</svg>