<?xml version="1.0" encoding="UTF-8" standalone="no"?>
<svg width="200px" height="32px" viewBox="0 0 200 32" version="1.1" xmlns="http://www.w3.org/2000/svg" xmlns:xlink="http://www.w3.org/1999/xlink">
    <!-- Generator: Sketch 39.1 (31720) - http://www.bohemiancoding.com/sketch -->
    <title>_ICN_LABEL_Lovese-Drilling-Zone</title>
    <desc>Created with Sketch.</desc>
    <defs>
        <rect id="path-1" x="15.4936383" y="11.5639935" width="0.984615385" height="10.0556465"></rect>
        <mask id="mask-2" maskContentUnits="userSpaceOnUse" maskUnits="objectBoundingBox" x="0" y="0" width="0.984615385" height="10.0556465" fill="white">
            <use xlink:href="#path-1"></use>
        </mask>
    </defs>
    <g id="_Icons" stroke="none" stroke-width="1" fill="none" fill-rule="evenodd">
        <g id="_ICN_LABEL_Lovese-Drilling-Zone">
            <polygon id="Fill-55" fill="#FEFEFE" points="0 32 159.5 32 159.5 0 0 0"></polygon>
            <text id="Lovese-Drilling-Zone" font-family="DINPro-Regular, DINPro" font-size="12.2894" font-weight="normal" letter-spacing="-0.491576" fill="#061819">
                <tspan x="16.7792969" y="21">Lovese Drilling Zone</tspan>
            </text>
            <g id="Group-3" transform="translate(143.000000, 0.000000)" stroke="#FFFFFF">
                <g id="Group-2" transform="translate(0.500000, 0.000000)">
                    <g id="Group">
                        <use id="Rectangle-4" mask="url(#mask-2)" fill="#354551" opacity="0.135494403" transform="translate(15.985946, 16.591817) rotate(-70.000000) translate(-15.985946, -16.591817) " xlink:href="#path-1"></use>
                        <path d="M0.232099797,15.9752821 C0.232099797,7.27467219 7.29889709,0.195011629 15.985946,0.195011629 C24.6729948,0.195011629 31.7397921,7.27467219 31.7397921,15.9752821 C31.7397921,24.6758921 24.6729948,31.7555527 15.985946,31.7555527 C7.29889709,31.7555527 0.232099797,24.6758921 0.232099797,15.9752821 Z" id="Fill-10-Copy-9" stroke-width="0.5" fill="#354651"></path>
                        <path d="M12.8808716,11.2515151 C12.8808716,11.9213728 11.8801778,12.4640772 10.6451792,12.4640772 C9.41096414,12.4640772 8.40948679,11.9213728 8.40948679,11.2515151" id="Stroke-12" stroke-width="0.5" stroke-linecap="round" stroke-linejoin="round"></path>
                        <path d="M17.3518645,11.2515151 C17.3518645,11.9213728 16.3511708,12.4640772 15.1161721,12.4640772 C13.8819571,12.4640772 12.8804797,11.9213728 12.8804797,11.2515151" id="Stroke-13" stroke-width="0.5" stroke-linecap="round" stroke-linejoin="round"></path>
                        <path d="M21.8229358,11.2515151 C21.8229358,11.9213728 20.8222421,12.4640772 19.5872434,12.4640772 C18.3530284,12.4640772 17.3515511,11.9213728 17.3515511,11.2515151" id="Stroke-14" stroke-width="0.5" stroke-linecap="round" stroke-linejoin="round"></path>
                        <path d="M14.5999176,15.4963119 C14.5999176,16.1661695 13.5992239,16.708874 12.3642252,16.708874 C11.1300102,16.708874 10.1285328,16.1661695 10.1285328,15.4963119" id="Stroke-15" stroke-width="0.5" stroke-linecap="round" stroke-linejoin="round"></path>
                        <path d="M19.0709889,15.4963119 C19.0709889,16.1661695 18.0702952,16.708874 16.8352965,16.708874 C15.6010815,16.708874 14.5996042,16.1661695 14.5996042,15.4963119" id="Stroke-16" stroke-width="0.5" stroke-linecap="round" stroke-linejoin="round"></path>
                        <path d="M23.5420602,15.4963119 C23.5420602,16.1661695 22.5413665,16.708874 21.3063678,16.708874 C20.0721528,16.708874 19.0706755,16.1661695 19.0706755,15.4963119" id="Stroke-17" stroke-width="0.5" stroke-linecap="round" stroke-linejoin="round"></path>
                        <path d="M12.8808716,19.7410165 C12.8808716,20.4108741 11.8801778,20.9535786 10.6451792,20.9535786 C9.41096414,20.9535786 8.40948679,20.4108741 8.40948679,19.7410165" id="Stroke-18" stroke-width="0.5" stroke-linecap="round" stroke-linejoin="round"></path>
                        <path d="M17.3518645,19.7410165 C17.3518645,20.4108741 16.3511708,20.9535786 15.1161721,20.9535786 C13.8819571,20.9535786 12.8804797,20.4108741 12.8804797,19.7410165" id="Stroke-19" stroke-width="0.5" stroke-linecap="round" stroke-linejoin="round"></path>
                        <path d="M21.8229358,19.7410165 C21.8229358,20.4108741 20.8222421,20.9535786 19.5872434,20.9535786 C18.3530284,20.9535786 17.3515511,20.4108741 17.3515511,19.7410165" id="Stroke-20" stroke-width="0.5" stroke-linecap="round" stroke-linejoin="round"></path>
                    </g>
                </g>
            </g>
        </g>
    </g>
</svg>