<?xml version="1.0" encoding="UTF-8" standalone="no"?>
<svg width="64px" height="64px" viewBox="0 0 64 64" version="1.1" xmlns="http://www.w3.org/2000/svg" xmlns:xlink="http://www.w3.org/1999/xlink">
    <!-- Generator: Sketch 39.1 (31720) - http://www.bohemiancoding.com/sketch -->
    <title>_ICN_BTN_Area</title>
    <desc>Created with Sketch.</desc>
    <defs>
        <rect id="path-1" x="31.2404574" y="25.4846154" width="1.47692308" height="14.7692308"></rect>
        <mask id="mask-2" maskContentUnits="userSpaceOnUse" maskUnits="objectBoundingBox" x="0" y="0" width="1.47692308" height="14.7692308" fill="white">
            <use xlink:href="#path-1"></use>
        </mask>
    </defs>
    <g id="_Icons" stroke="none" stroke-width="1" fill="none" fill-rule="evenodd">
        <g id="_ICN_BTN_Area">
            <use id="Rectangle-4" stroke="#334551" mask="url(#mask-2)" opacity="0.135494403" transform="translate(31.978919, 32.869231) rotate(-70.000000) translate(-31.978919, -32.869231) " xlink:href="#path-1"></use>
            <path d="M8.3481497,31.9636956 C8.3481497,19.1846748 18.9483456,8.78642333 31.9789189,8.78642333 C45.0094922,8.78642333 55.6096882,19.1846748 55.6096882,31.9636956 C55.6096882,44.7427165 45.0094922,55.140968 31.9789189,55.140968 C18.9483456,55.140968 8.3481497,44.7427165 8.3481497,31.9636956 Z" id="Fill-10-Copy-9" stroke-opacity="0.308763587" stroke="#354651" stroke-width="0.5" fill="#FFFFFF"></path>
            <path d="M27.3213073,25.0256628 C27.3213073,26.0095162 25.8202668,26.8066135 23.9677688,26.8066135 C22.1164462,26.8066135 20.6142302,26.0095162 20.6142302,25.0256628" id="Stroke-12" stroke="#334551" stroke-width="0.5" stroke-linecap="round" stroke-linejoin="round"></path>
            <path d="M34.0277968,25.0256628 C34.0277968,26.0095162 32.5267562,26.8066135 30.6742582,26.8066135 C28.8229356,26.8066135 27.3207196,26.0095162 27.3207196,25.0256628" id="Stroke-13" stroke="#334551" stroke-width="0.5" stroke-linecap="round" stroke-linejoin="round"></path>
            <path d="M40.7344037,25.0256628 C40.7344037,26.0095162 39.2333631,26.8066135 37.3808651,26.8066135 C35.5295426,26.8066135 34.0273266,26.0095162 34.0273266,25.0256628" id="Stroke-14" stroke="#334551" stroke-width="0.5" stroke-linecap="round" stroke-linejoin="round"></path>
            <path d="M29.8998764,31.260208 C29.8998764,32.2440615 28.3988358,33.0411587 26.5463378,33.0411587 C24.6950153,33.0411587 23.1927993,32.2440615 23.1927993,31.260208" id="Stroke-15" stroke="#334551" stroke-width="0.5" stroke-linecap="round" stroke-linejoin="round"></path>
            <path d="M36.6064834,31.260208 C36.6064834,32.2440615 35.1054428,33.0411587 33.2529448,33.0411587 C31.4016222,33.0411587 29.8994062,32.2440615 29.8994062,31.260208" id="Stroke-16" stroke="#334551" stroke-width="0.5" stroke-linecap="round" stroke-linejoin="round"></path>
            <path d="M43.3130903,31.260208 C43.3130903,32.2440615 41.8120498,33.0411587 39.9595518,33.0411587 C38.1082292,33.0411587 36.6060132,32.2440615 36.6060132,31.260208" id="Stroke-17" stroke="#334551" stroke-width="0.5" stroke-linecap="round" stroke-linejoin="round"></path>
            <path d="M27.3213073,37.4946179 C27.3213073,38.4784714 25.8202668,39.2755686 23.9677688,39.2755686 C22.1164462,39.2755686 20.6142302,38.4784714 20.6142302,37.4946179" id="Stroke-18" stroke="#334551" stroke-width="0.5" stroke-linecap="round" stroke-linejoin="round"></path>
            <path d="M34.0277968,37.4946179 C34.0277968,38.4784714 32.5267562,39.2755686 30.6742582,39.2755686 C28.8229356,39.2755686 27.3207196,38.4784714 27.3207196,37.4946179" id="Stroke-19" stroke="#334551" stroke-width="0.5" stroke-linecap="round" stroke-linejoin="round"></path>
            <path d="M40.7344037,37.4946179 C40.7344037,38.4784714 39.2333631,39.2755686 37.3808651,39.2755686 C35.5295426,39.2755686 34.0273266,38.4784714 34.0273266,37.4946179" id="Stroke-20" stroke="#334551" stroke-width="0.5" stroke-linecap="round" stroke-linejoin="round"></path>
        </g>
    </g>
</svg>