<?xml version="1.0" encoding="UTF-8" standalone="no"?>
<svg width="64px" height="64px" viewBox="0 0 64 64" version="1.1" xmlns="http://www.w3.org/2000/svg" xmlns:xlink="http://www.w3.org/1999/xlink">
    <!-- Generator: Sketch 39.1 (31720) - http://www.bohemiancoding.com/sketch -->
    <title>_ICN_BTN_Shelf_Inverted</title>
    <desc>Created with Sketch.</desc>
    <defs></defs>
    <g id="_Icons" stroke="none" stroke-width="1" fill="none" fill-rule="evenodd">
        <g id="_ICN_BTN_Shelf_Inverted" stroke="#FFFFFF" stroke-width="0.5">
            <path d="M8.3481497,31.4636956 C8.3481497,18.6846748 18.9483456,8.28642333 31.9789189,8.28642333 C45.0094922,8.28642333 55.6096882,18.6846748 55.6096882,31.4636956 C55.6096882,44.2427165 45.0094922,54.640968 31.9789189,54.640968 C18.9483456,54.640968 8.3481497,44.2427165 8.3481497,31.4636956 Z" id="Fill-10-Copy-9" fill="#354651"></path>
            <path d="M24.1564077,25.9860585 C24.1564077,26.4838064 23.2945167,26.8879186 22.2298993,26.8879186 C21.1664958,26.8879186 20.303391,26.4838064 20.303391,25.9860585" id="Stroke-25"></path>
            <path d="M28.009303,25.9860585 C28.009303,26.4838064 27.1474121,26.8879186 26.0827947,26.8879186 C25.0193912,26.8879186 24.1562863,26.4838064 24.1562863,25.9860585" id="Stroke-26"></path>
            <path d="M31.8621984,25.9860585 C31.8621984,26.4838064 30.9990935,26.8879186 29.93569,26.8879186 C28.8722865,26.8879186 28.0091816,26.4838064 28.0091816,25.9860585" id="Stroke-27"></path>
            <path d="M35.7150937,25.9860585 C35.7150937,26.4838064 34.8532028,26.8879186 33.7885854,26.8879186 C32.7251819,26.8879186 31.862077,26.4838064 31.862077,25.9860585" id="Stroke-28"></path>
            <path d="M39.5679891,25.9860585 C39.5679891,26.4838064 38.7060981,26.8879186 37.6414807,26.8879186 C36.5780772,26.8879186 35.7149723,26.4838064 35.7149723,25.9860585" id="Stroke-29"></path>
            <path d="M43.4210058,25.9860585 C43.4210058,26.4838064 42.5579009,26.8879186 41.4944974,26.8879186 C40.431094,26.8879186 39.5679891,26.4838064 39.5679891,25.9860585" id="Stroke-30"></path>
            <polyline id="Stroke-31" points="40.1970481 41.2340237 32.3708354 41.2340237 28.617361 32.3398599 20.8518449 32.3398599"></polyline>
        </g>
    </g>
</svg>