<?xml version="1.0" encoding="UTF-8" standalone="no"?>
<svg width="64px" height="64px" viewBox="0 0 64 64" version="1.1" xmlns="http://www.w3.org/2000/svg" xmlns:xlink="http://www.w3.org/1999/xlink">
    <!-- Generator: Sketch 39.1 (31720) - http://www.bohemiancoding.com/sketch -->
    <title>_ICN_BTN_Oil_Inverted</title>
    <desc>Created with Sketch.</desc>
    <defs></defs>
    <g id="_Icons" stroke="none" stroke-width="1" fill="none" fill-rule="evenodd">
        <g id="_ICN_BTN_Oil_Inverted" stroke="#FFFFFF" stroke-width="0.5">
            <path d="M8.36923077,32 C8.36923077,19.2209791 18.9694267,8.82272769 32,8.82272769 C45.0305733,8.82272769 55.6307692,19.2209791 55.6307692,32 C55.6307692,44.7790209 45.0305733,55.1772723 32,55.1772723 C18.9694267,55.1772723 8.36923077,44.7790209 8.36923077,32 Z" id="Fill-10-Copy-9" fill="#354651"></path>
            <g id="Group-2" transform="translate(25.000000, 21.500000)">
                <g id="Group">
                    <path d="M7.23235139,0.613673388 C7.19166534,0.555187197 7.12300764,0.519586906 7.05053562,0.519586906 C6.97933504,0.519586906 6.91067733,0.555187197 6.86871985,0.613673388 C6.61951782,0.956961901 0.763270066,9.05221362 0.763270066,13.1322612 C0.763270066,20.2040046 6.00032705,20.5625503 7.05053562,20.5625503 C8.10710137,20.5625503 13.37213,20.2040046 13.37213,13.1322612 C13.37213,9.1068855 7.48409629,0.959504779 7.23235139,0.613673388 L7.23235139,0.613673388 Z" id="Stroke-6-Copy"></path>
                    <path d="M10.4696892,15.4607744 C10.4696892,16.5173402 9.61273937,17.37429 8.55617361,17.37429" id="Stroke-7-Copy"></path>
                </g>
            </g>
        </g>
    </g>
</svg>