<?xml version="1.0" encoding="UTF-8" standalone="no"?>
<svg width="64px" height="64px" viewBox="0 0 64 64" version="1.1" xmlns="http://www.w3.org/2000/svg" xmlns:xlink="http://www.w3.org/1999/xlink">
    <!-- Generator: Sketch 39.1 (31720) - http://www.bohemiancoding.com/sketch -->
    <title>_ICN_BTN_Shelf</title>
    <desc>Created with Sketch.</desc>
    <defs></defs>
    <g id="_Icons" stroke="none" stroke-width="1" fill="none" fill-rule="evenodd">
        <g id="_ICN_BTN_Shelf">
            <path d="M7.94775907,31.6164333 C7.94775907,18.5873723 18.547955,7.98566402 31.5785283,7.98566402 C44.6091016,7.98566402 55.2092975,18.5873723 55.2092975,31.6164333 C55.2092975,44.6454942 44.6091016,55.2472025 31.5785283,55.2472025 C18.547955,55.2472025 7.94775907,44.6454942 7.94775907,31.6164333 Z" id="Fill-10-Copy-8" stroke-opacity="0.475232111" stroke="#354652" fill="#FFFFFF"></path>
            <path d="M23.734936,23.9717225 C23.734936,24.4694704 22.873045,24.8735826 21.8084276,24.8735826 C20.7450241,24.8735826 19.8819193,24.4694704 19.8819193,23.9717225" id="Stroke-25" stroke="#334551" stroke-width="0.5"></path>
            <path d="M27.5878313,23.9717225 C27.5878313,24.4694704 26.7259404,24.8735826 25.661323,24.8735826 C24.5979195,24.8735826 23.7348146,24.4694704 23.7348146,23.9717225" id="Stroke-26" stroke="#334551" stroke-width="0.5"></path>
            <path d="M31.4407267,23.9717225 C31.4407267,24.4694704 30.5776218,24.8735826 29.5142183,24.8735826 C28.4508148,24.8735826 27.5877099,24.4694704 27.5877099,23.9717225" id="Stroke-27" stroke="#334551" stroke-width="0.5"></path>
            <path d="M35.293622,23.9717225 C35.293622,24.4694704 34.4317311,24.8735826 33.3671137,24.8735826 C32.3037102,24.8735826 31.4406053,24.4694704 31.4406053,23.9717225" id="Stroke-28" stroke="#334551" stroke-width="0.5"></path>
            <path d="M39.1465174,23.9717225 C39.1465174,24.4694704 38.2846264,24.8735826 37.220009,24.8735826 C36.1566055,24.8735826 35.2935006,24.4694704 35.2935006,23.9717225" id="Stroke-29" stroke="#334551" stroke-width="0.5"></path>
            <path d="M42.9995341,23.9717225 C42.9995341,24.4694704 42.1364292,24.8735826 41.0730257,24.8735826 C40.0096223,24.8735826 39.1465174,24.4694704 39.1465174,23.9717225" id="Stroke-30" stroke="#334551" stroke-width="0.5"></path>
            <polyline id="Stroke-31" stroke="#334551" stroke-width="0.5" points="39.7755764 39.2196877 31.9493637 39.2196877 28.1958893 30.3255239 20.4303733 30.3255239"></polyline>
        </g>
    </g>
</svg>