<?xml version="1.0" encoding="UTF-8" standalone="no"?>
<svg width="200px" height="32px" viewBox="0 0 200 32" version="1.1" xmlns="http://www.w3.org/2000/svg" xmlns:xlink="http://www.w3.org/1999/xlink">
    <!-- Generator: Sketch 39.1 (31720) - http://www.bohemiancoding.com/sketch -->
    <title>_ICN_LABEL_Oil-and-Gas-Deposits</title>
    <desc>Created with Sketch.</desc>
    <defs></defs>
    <g id="_Icons" stroke="none" stroke-width="1" fill="none" fill-rule="evenodd">
        <g id="_ICN_LABEL_Oil-and-Gas-Deposits">
            <polygon id="Fill-55" fill="#FEFEFE" points="0 32 139.5 32 139.5 0 0 0"></polygon>
            <text id="Oil-&amp;-Gas-Deposits" font-family="DINPro-Regular, DINPro" font-size="12.2894" font-weight="normal" letter-spacing="-0.491576" fill="#061819">
                <tspan x="16.7792969" y="21">Oil &amp; Gas Deposits</tspan>
            </text>
            <g id="Group-3" transform="translate(123.000000, 0.000000)" stroke="#FFFFFF" stroke-width="0.5">
                <path d="M0.746153846,16 C0.746153846,7.17824 7.92336985,0 16.7461538,0 C25.5689378,0 32.7461538,7.17824 32.7461538,16 C32.7461538,24.82176 25.5689378,32 16.7461538,32 C7.92336985,32 0.746153846,24.82176 0.746153846,16 Z" id="Fill-10-Copy-9" fill="#354651"></path>
                <g id="Group-2" transform="translate(11.833333, 9.000000)">
                    <g id="Group">
                        <path d="M4.82156759,0.409115592 C4.79444356,0.370124798 4.74867176,0.346391271 4.70035708,0.346391271 C4.65289002,0.346391271 4.60711822,0.370124798 4.57914657,0.409115592 C4.41301188,0.637974601 0.508846711,6.03480908 0.508846711,8.75484078 C0.508846711,13.4693364 4.00021804,13.7083669 4.70035708,13.7083669 C5.40473425,13.7083669 8.91475335,13.4693364 8.91475335,8.75484078 C8.91475335,6.071257 4.98939753,0.639669853 4.82156759,0.409115592 L4.82156759,0.409115592 Z" id="Stroke-6-Copy"></path>
                        <path d="M6.97979281,10.307183 C6.97979281,11.0115601 6.40849291,11.58286 5.70411574,11.58286" id="Stroke-7-Copy"></path>
                    </g>
                </g>
            </g>
        </g>
    </g>
</svg>