<?xml version="1.0" encoding="UTF-8" standalone="no"?>
<svg width="64px" height="64px" viewBox="0 0 64 64" version="1.1" xmlns="http://www.w3.org/2000/svg" xmlns:xlink="http://www.w3.org/1999/xlink">
    <!-- Generator: Sketch 39.1 (31720) - http://www.bohemiancoding.com/sketch -->
    <title>_ICN_BTN_Islands</title>
    <desc>Created with Sketch.</desc>
    <defs></defs>
    <g id="_Icons" stroke="none" stroke-width="1" fill="none" fill-rule="evenodd">
        <g id="_ICN_BTN_Islands">
            <path d="M8.36923077,32 C8.36923077,18.9709391 18.9694267,8.36923077 32,8.36923077 C45.0305733,8.36923077 55.6307692,18.9709391 55.6307692,32 C55.6307692,45.0290609 45.0305733,55.6307692 32,55.6307692 C18.9694267,55.6307692 8.36923077,45.0290609 8.36923077,32 Z" id="Fill-10-Copy-10" stroke-opacity="0.474184783" stroke="#354652" fill="#FFFFFF"></path>
            <g id="Group" transform="translate(21.000000, 24.000000)" stroke="#364650" stroke-width="0.5">
                <path d="M18.420483,15.5530975 C16.3648886,17.6915322 13.4881161,19.0173616 10.304064,19.0173616 C6.04453339,19.0173616 2.33598685,16.6436992 0.4181385,13.1313203 C0.328073799,12.9762838 0.248604944,12.8212473 0.174434013,12.6662108 L6.03923547,3.61528624 L8.36502394,0.0280621509 L10.2404889,2.92564107 L16.8522976,13.1313203 L18.420483,15.5530975 L18.420483,15.5530975 Z" id="Stroke-1"></path>
                <path d="M20.2005323,13.1313203 C20.1952344,13.1420125 20.1899365,13.1473586 20.1846386,13.1580508 C19.7025275,14.034809 19.1091601,14.8367219 18.42043,15.5530975 L12.8258226,6.89778339 L14.2350703,7.01539729 L16.2959626,4.63104268 L19.4747168,8.50695545 L21.5673966,8.59783892 C21.4296506,10.2337414 20.9475396,11.7680683 20.2005323,13.1313203 Z" id="Stroke-3"></path>
            </g>
        </g>
    </g>
</svg>