<?xml version="1.0" encoding="UTF-8" standalone="no"?>
<svg width="200px" height="32px" viewBox="0 0 200 32" version="1.1" xmlns="http://www.w3.org/2000/svg" xmlns:xlink="http://www.w3.org/1999/xlink">
    <!-- Generator: Sketch 39.1 (31720) - http://www.bohemiancoding.com/sketch -->
    <title>_ICN_LABEL_Senja-Archipelago</title>
    <desc>Created with Sketch.</desc>
    <defs></defs>
    <g id="_Icons" stroke="none" stroke-width="1" fill="none" fill-rule="evenodd">
        <g id="_ICN_LABEL_Senja-Archipelago">
            <polygon id="Fill-55" fill="#FEFEFE" points="0 32 140.499169 32 140.499169 0 0 0"></polygon>
            <text id="Senja-Archipelago" font-family="DINPro-Regular, DINPro" font-size="12.2894" font-weight="normal" fill="#061819">
                <tspan x="16.7792969" y="21">Senja Archipelago</tspan>
            </text>
            <path d="M123.746154,16 C123.746154,7.17824 130.92337,1.13686838e-13 139.746154,1.13686838e-13 C148.568938,1.13686838e-13 155.746154,7.17824 155.746154,16 C155.746154,24.82176 148.568938,32 139.746154,32 C130.92337,32 123.746154,24.82176 123.746154,16 Z" id="Fill-10-Copy-9" stroke="#FFFFFF" stroke-width="0.5" fill="#354651"></path>
            <path d="M144.228943,20.2482785 C142.858547,21.6739016 140.940698,22.5577879 138.817997,22.5577879 C135.97831,22.5577879 133.505945,20.9753463 132.22738,18.6337604 C132.167337,18.5304027 132.114358,18.4270451 132.06491,18.3236874 L135.974778,12.2897377 L137.525304,9.89825495 L138.775614,11.8299742 L143.183486,18.6337604 L144.228943,20.2482785 L144.228943,20.2482785 Z" id="Stroke-1" stroke="#FFFFFF" stroke-width="0.5"></path>
            <path d="M145.415642,18.6337604 C145.412111,18.6408885 145.408579,18.6444526 145.405047,18.6515807 C145.083639,19.2360862 144.688061,19.7706948 144.228908,20.2482785 L140.499169,14.4780691 L141.438668,14.5564784 L142.812596,12.9669086 L144.931765,15.5508505 L146.326885,15.6114395 C146.235055,16.7020411 145.913647,17.7249257 145.415642,18.6337604 Z" id="Stroke-3" stroke="#FFFFFF" stroke-width="0.5"></path>
        </g>
    </g>
</svg>