<?xml version="1.0" encoding="UTF-8" standalone="no"?>
<svg width="216px" height="32px" viewBox="0 0 216 32" version="1.1" xmlns="http://www.w3.org/2000/svg" xmlns:xlink="http://www.w3.org/1999/xlink">
    <!-- Generator: Sketch 39.1 (31720) - http://www.bohemiancoding.com/sketch -->
    <title>_ICN_LABEL_Norwegian-Continental-Shelf</title>
    <desc>Created with Sketch.</desc>
    <defs></defs>
    <g id="_Icons" stroke="none" stroke-width="1" fill="none" fill-rule="evenodd">
        <g id="_ICN_LABEL_Norwegian-Continental-Shelf">
            <polygon id="Fill-55" fill="#FEFEFE" points="0 32 189.5 32 189.5 0 0 0"></polygon>
            <text id="Norwegian-Continenta" font-family="DINPro-Regular, DINPro" font-size="12.2894" font-weight="normal" letter-spacing="-0.491576" fill="#061819">
                <tspan x="16.7792969" y="21">Norwegian Continental Shelf</tspan>
            </text>
            <g id="Group-3" transform="translate(173.000000, 0.000000)" stroke-width="0.5" stroke="#FFFFFF">
                <g id="Group-2" transform="translate(0.500000, 0.000000)">
                    <g id="Group">
                        <path d="M0.232099797,15.9752821 C0.232099797,7.27467219 7.29889709,0.195011629 15.985946,0.195011629 C24.6729948,0.195011629 31.7397921,7.27467219 31.7397921,15.9752821 C31.7397921,24.6758921 24.6729948,31.7555527 15.985946,31.7555527 C7.29889709,31.7555527 0.232099797,24.6758921 0.232099797,15.9752821 Z" id="Fill-10-Copy-9" fill="#354651"></path>
                        <path d="M10.7709385,12.245827 C10.7709385,12.5847192 10.1963445,12.8598594 9.48659955,12.8598594 C8.7776639,12.8598594 8.20226064,12.5847192 8.20226064,12.245827" id="Stroke-25"></path>
                        <path d="M13.3395354,12.245827 C13.3395354,12.5847192 12.7649414,12.8598594 12.0551964,12.8598594 C11.3462608,12.8598594 10.7708575,12.5847192 10.7708575,12.245827" id="Stroke-26"></path>
                        <path d="M15.9081323,12.245827 C15.9081323,12.5847192 15.332729,12.8598594 14.6237933,12.8598594 C13.9148577,12.8598594 13.3394544,12.5847192 13.3394544,12.245827" id="Stroke-27"></path>
                        <path d="M18.4767292,12.245827 C18.4767292,12.5847192 17.9021352,12.8598594 17.1923902,12.8598594 C16.4834546,12.8598594 15.9080513,12.5847192 15.9080513,12.245827" id="Stroke-28"></path>
                        <path d="M21.045326,12.245827 C21.045326,12.5847192 20.4707321,12.8598594 19.7609871,12.8598594 C19.0520515,12.8598594 18.4766482,12.5847192 18.4766482,12.245827" id="Stroke-29"></path>
                        <path d="M23.6140039,12.245827 C23.6140039,12.5847192 23.0386006,12.8598594 22.329665,12.8598594 C21.6207293,12.8598594 21.045326,12.5847192 21.045326,12.245827" id="Stroke-30"></path>
                        <polyline id="Stroke-31" points="21.4646987 22.6274204 16.2472236 22.6274204 13.7449074 16.5718195 8.56789663 16.5718195"></polyline>
                    </g>
                </g>
            </g>
        </g>
    </g>
</svg>