<?xml version="1.0" encoding="UTF-8" standalone="no"?>
<svg width="64px" height="64px" viewBox="0 0 64 64" version="1.1" xmlns="http://www.w3.org/2000/svg" xmlns:xlink="http://www.w3.org/1999/xlink">
    <!-- Generator: Sketch 39.1 (31720) - http://www.bohemiancoding.com/sketch -->
    <title>_ICN_BTN_Area_Inverted</title>
    <desc>Created with Sketch.</desc>
    <defs>
        <rect id="path-1" x="31.2404574" y="24.9846154" width="1.47692308" height="14.7692308"></rect>
        <mask id="mask-2" maskContentUnits="userSpaceOnUse" maskUnits="objectBoundingBox" x="0" y="0" width="1.47692308" height="14.7692308" fill="white">
            <use xlink:href="#path-1"></use>
        </mask>
    </defs>
    <g id="_Icons" stroke="none" stroke-width="1" fill="none" fill-rule="evenodd">
        <g id="_ICN_BTN_Area_Inverted" stroke="#FFFFFF">
            <use id="Rectangle-4" mask="url(#mask-2)" fill="#354551" opacity="0.135494403" transform="translate(31.978919, 32.369231) rotate(-70.000000) translate(-31.978919, -32.369231) " xlink:href="#path-1"></use>
            <path d="M8.3481497,31.4636956 C8.3481497,18.6846748 18.9483456,8.28642333 31.9789189,8.28642333 C45.0094922,8.28642333 55.6096882,18.6846748 55.6096882,31.4636956 C55.6096882,44.2427165 45.0094922,54.640968 31.9789189,54.640968 C18.9483456,54.640968 8.3481497,44.2427165 8.3481497,31.4636956 Z" id="Fill-10-Copy-9" stroke-width="0.5" fill="#354651"></path>
            <path d="M27.3213073,24.5256628 C27.3213073,25.5095162 25.8202668,26.3066135 23.9677688,26.3066135 C22.1164462,26.3066135 20.6142302,25.5095162 20.6142302,24.5256628" id="Stroke-12" stroke-width="0.5" stroke-linecap="round" stroke-linejoin="round"></path>
            <path d="M34.0277968,24.5256628 C34.0277968,25.5095162 32.5267562,26.3066135 30.6742582,26.3066135 C28.8229356,26.3066135 27.3207196,25.5095162 27.3207196,24.5256628" id="Stroke-13" stroke-width="0.5" stroke-linecap="round" stroke-linejoin="round"></path>
            <path d="M40.7344037,24.5256628 C40.7344037,25.5095162 39.2333631,26.3066135 37.3808651,26.3066135 C35.5295426,26.3066135 34.0273266,25.5095162 34.0273266,24.5256628" id="Stroke-14" stroke-width="0.5" stroke-linecap="round" stroke-linejoin="round"></path>
            <path d="M29.8998764,30.760208 C29.8998764,31.7440615 28.3988358,32.5411587 26.5463378,32.5411587 C24.6950153,32.5411587 23.1927993,31.7440615 23.1927993,30.760208" id="Stroke-15" stroke-width="0.5" stroke-linecap="round" stroke-linejoin="round"></path>
            <path d="M36.6064834,30.760208 C36.6064834,31.7440615 35.1054428,32.5411587 33.2529448,32.5411587 C31.4016222,32.5411587 29.8994062,31.7440615 29.8994062,30.760208" id="Stroke-16" stroke-width="0.5" stroke-linecap="round" stroke-linejoin="round"></path>
            <path d="M43.3130903,30.760208 C43.3130903,31.7440615 41.8120498,32.5411587 39.9595518,32.5411587 C38.1082292,32.5411587 36.6060132,31.7440615 36.6060132,30.760208" id="Stroke-17" stroke-width="0.5" stroke-linecap="round" stroke-linejoin="round"></path>
            <path d="M27.3213073,36.9946179 C27.3213073,37.9784714 25.8202668,38.7755686 23.9677688,38.7755686 C22.1164462,38.7755686 20.6142302,37.9784714 20.6142302,36.9946179" id="Stroke-18" stroke-width="0.5" stroke-linecap="round" stroke-linejoin="round"></path>
            <path d="M34.0277968,36.9946179 C34.0277968,37.9784714 32.5267562,38.7755686 30.6742582,38.7755686 C28.8229356,38.7755686 27.3207196,37.9784714 27.3207196,36.9946179" id="Stroke-19" stroke-width="0.5" stroke-linecap="round" stroke-linejoin="round"></path>
            <path d="M40.7344037,36.9946179 C40.7344037,37.9784714 39.2333631,38.7755686 37.3808651,38.7755686 C35.5295426,38.7755686 34.0273266,37.9784714 34.0273266,36.9946179" id="Stroke-20" stroke-width="0.5" stroke-linecap="round" stroke-linejoin="round"></path>
        </g>
    </g>
</svg>